<svg xmlns="http://www.w3.org/2000/svg" xmlns:xlink="http://www.w3.org/1999/xlink" fill="none" version="1.1" width="19.50656509399414" height="18.63661003112793" viewBox="0 0 19.50656509399414 18.63661003112793"><g><path d="M9.75328,0.00050903C4.42387,-0.0536482,0.0584526,4.2205,0,9.54987C0.0202293,13.6995,2.7132,17.3629,6.6677,18.6204C7.15536,18.7091,7.3327,18.4165,7.3327,18.1594C7.3327,18.1594,7.3327,16.5368,7.3327,16.5368C4.61951,17.1131,4.04318,15.26,4.04318,15.26C3.86256,14.6782,3.47859,14.1809,2.96145,13.859C2.07479,13.2738,3.03239,13.2827,3.03239,13.2827C3.6533,13.3657,4.20208,13.7283,4.52198,14.2669C5.09443,15.2595,6.35656,15.6106,7.35929,15.056C7.40886,14.5705,7.62874,14.1182,7.97996,13.7792C5.81649,13.5398,3.54665,12.7241,3.54665,9.06219C3.52731,8.10698,3.88026,7.18169,4.53085,6.48202C4.23455,5.66191,4.26954,4.75862,4.62838,3.9639C4.62838,3.9639,5.45298,3.70677,7.28837,4.93922C8.88605,4.51348,10.5673,4.51348,12.165,4.93922C14.027,3.70676,14.825,3.9639,14.825,3.9639C15.1838,4.75862,15.2188,5.66191,14.9225,6.48201C15.5882,7.16886,15.9603,8.08795,15.9599,9.04447C15.9599,12.7152,13.6723,13.5221,11.5266,13.7615C12.0024,14.2234,12.2463,14.874,12.1916,15.5348C12.1916,15.5348,12.1916,18.1505,12.1916,18.1505C12.1916,18.4608,12.3689,18.7091,12.8566,18.6116C16.7993,17.3464,19.4822,13.6905,19.5066,9.54987C19.4481,4.22051,15.0827,-0.0536482,9.75328,0.00050903Z" fill="#4E4E4E" fill-opacity="1" style="mix-blend-mode:passthrough"/></g></svg>