<svg xmlns="http://www.w3.org/2000/svg" xmlns:xlink="http://www.w3.org/1999/xlink" fill="none" version="1.1" width="14.381049156188965" height="14.381103515625" viewBox="0 0 14.381049156188965 14.381103515625"><g><path d="M12.4066,7.09454C12.1592,7.30484,11.7942,7.2992,11.5534,7.08136C11.3165,6.86764,11.2946,6.50347,11.5043,6.26295C11.5043,6.26295,12.5947,5.16772,12.5947,5.16772C13.4093,4.20995,13.3031,2.77531,12.3562,1.94799C11.4096,1.00256,10.0112,0.917478,9.22158,1.71313C9.22158,1.71313,6.17438,4.78189,6.17438,4.78189C5.36003,5.73998,5.46683,7.17465,6.41404,8.00162C6.53041,8.11203,6.5963,8.2654,6.5963,8.42581C6.5963,8.58622,6.53041,8.73958,6.41404,8.85C6.16551,9.09045,5.77107,9.09045,5.52254,8.85C4.11252,7.56645,4.00591,5.38435,5.28408,3.96946C5.28408,3.96946,8.33128,0.918676,8.33128,0.918676C9.64218,-0.394615,11.8673,-0.286783,13.2849,1.15833C14.6564,2.44173,14.7538,4.58492,13.5042,5.98735C13.5042,5.98735,12.4066,7.09455,12.4066,7.09455C12.4066,7.09455,12.4066,7.09454,12.4066,7.09454ZM1.97447,7.28626C2.22188,7.07597,2.58683,7.08161,2.82763,7.29944C3.0637,7.51752,3.08646,7.87461,2.87676,8.11786C2.87676,8.11786,1.78634,9.21307,1.78634,9.21307C0.971688,10.1708,1.07794,11.6055,2.0248,12.4328C2.97144,13.3782,4.36981,13.4633,5.15945,12.6677C5.15945,12.6677,8.20666,9.59892,8.20666,9.59892C9.02101,8.64081,8.91422,7.20614,7.96699,6.37917C7.85063,6.26875,7.78474,6.11539,7.78474,5.95499C7.78474,5.79458,7.85063,5.64122,7.96699,5.5308C8.21527,5.28972,8.61023,5.28972,8.85851,5.53081C10.2685,6.81436,10.3751,8.99645,9.09697,10.4113C9.09697,10.4113,6.04977,13.4633,6.04977,13.4633C4.73886,14.7754,2.51369,14.6676,1.09613,13.2237C-0.275403,11.9403,-0.372714,9.79707,0.876874,8.39465C0.876874,8.39465,1.97449,7.28745,1.97449,7.28745C1.97449,7.28745,1.97447,7.28626,1.97447,7.28626Z" fill="#333333" fill-opacity="1" style="mix-blend-mode:passthrough"/></g></svg>