<svg xmlns="http://www.w3.org/2000/svg" xmlns:xlink="http://www.w3.org/1999/xlink" fill="none" version="1.1" width="18.63671875" height="18.636474609375" viewBox="0 0 18.63671875 18.636474609375"><g><g style="opacity:0.9900000095367432;"><path d="M8.898926308593751,9.131915668945313C8.898926308593751,9.131915668945313,8.861666308593751,9.215775668945312,8.861666308593751,9.215775668945312C8.861666308593751,9.215775668945312,8.82438630859375,9.178515668945312,8.82438630859375,9.178515668945312C8.451656308593751,10.128985668945312,8.04163630859375,11.079425668945312,7.58505630859375,11.992625668945312C7.58505630859375,11.992625668945312,7.66891630859375,11.955335668945313,7.66891630859375,11.955335668945313C7.66891630859375,11.955335668945313,7.66891630859375,12.039195668945313,7.66891630859375,12.039195668945313C8.582106308593751,11.703745668945313,9.56985630859375,11.414875668945312,10.48301630859375,11.209885668945313C10.48301630859375,11.209885668945313,10.44575630859375,11.172625668945312,10.44575630859375,11.172625668945312C10.44575630859375,11.172625668945312,10.566896308593751,11.172625668945312,10.566896308593751,11.172625668945312C9.93324630859375,10.538985668945312,9.35551630859375,9.840105668945313,8.898926308593751,9.131915668945313C8.898926308593751,9.131915668945313,8.898926308593751,9.131915668945313,8.898926308593751,9.131915668945313ZM8.610066308593751,3.1309356689453125C8.610066308593751,3.1309356689453125,8.48892630859375,3.1309356689453125,8.48892630859375,3.1309356689453125C8.45164630859375,3.1309356689453125,8.36778630859375,3.1309356689453125,8.32119630859375,3.1681976689453126C8.15347630859375,3.8763886689453124,8.28391630859375,4.621875668945313,8.57278630859375,5.283465668945313C8.81506630859375,4.575275668945313,8.81506630859375,3.8297886689453122,8.610066308593751,3.1309356689453125C8.610066308593751,3.1309356689453125,8.610066308593751,3.1309356689453125,8.610066308593751,3.1309356689453125ZM3.10296630859375,15.552235668945313C3.10296630859375,15.552235668945313,3.22409030859375,15.514935668945313,3.22409030859375,15.514935668945313C3.80183430859375,15.309935668945313,4.25842630859375,14.890635668945313,4.5938763085937495,14.359435668945313C3.97888230859375,14.601735668945313,3.47569230859375,15.011735668945313,3.10296630859375,15.552235668945313C3.10296630859375,15.552235668945313,3.10296630859375,15.552235668945313,3.10296630859375,15.552235668945313ZM14.53646630859375,11.331005668945313C14.16376630859375,11.331005668945313,13.82826630859375,11.331005668945313,13.45556630859375,11.414875668945312C13.86556630859375,11.619885668945313,14.28486630859375,11.703745668945313,14.69486630859375,11.750355668945312C14.98376630859375,11.787615668945312,15.27266630859375,11.750355668945312,15.52416630859375,11.666485668945313C15.52416630859375,11.536025668945312,15.36576630859375,11.331005668945313,14.53646630859375,11.331005668945313C14.53646630859375,11.331005668945313,14.53646630859375,11.331005668945313,14.53646630859375,11.331005668945313Z" fill="#4E4E4E" fill-opacity="1" style="mix-blend-mode:passthrough"/></g><g style="opacity:0.9900000095367432;"><path d="M16.7729,0C16.7729,0,1.86365,0,1.86365,0C0.838638,0,0,0.838646,0,1.86366C0,1.86366,0,16.7729,0,16.7729C0,17.7979,0.838638,18.6366,1.86365,18.6366C1.86365,18.6366,16.7729,18.6366,16.7729,18.6366C17.7979,18.6366,18.6366,17.7979,18.6366,16.7729C18.6366,16.7729,18.6366,1.86366,18.6366,1.86366C18.6366,0.838654,17.7979,0.00000762939,16.7729,0.00000762939C16.7729,0.00000762939,16.7729,0,16.7729,0ZM16.7729,11.5733C16.7729,12.9804,15.4031,12.9804,14.7042,12.9804C13.586,12.8965,12.5144,12.4865,11.6385,11.741C9.94259,12.1138,8.33052,12.6542,6.70914,13.3158C5.42322,15.5895,4.22116,16.7542,3.18683,16.7542C2.98183,16.7542,2.73024,16.717,2.56251,16.5865C2.10591,16.3815,1.85432,15.9249,1.85432,15.4683C1.85432,15.0956,1.93818,14.0613,5.87048,12.3653C6.78368,10.7067,7.48254,9.01077,8.06029,7.23099C7.56642,6.23393,6.48549,3.79254,7.23096,2.5532C7.48256,2.0966,7.97643,1.84502,8.51688,1.8916C8.92688,1.8916,9.34621,2.0966,9.59781,2.43207C10.1383,3.17752,10.0917,4.75232,9.39281,7.07256C10.0544,8.3119,10.921,9.4301,11.9553,10.3806C12.8219,10.2128,13.6978,10.0917,14.5644,10.0917C16.5213,10.129,16.8102,11.0422,16.7729,11.5733C16.7729,11.5733,16.7729,11.5733,16.7729,11.5733Z" fill="#4E4E4E" fill-opacity="1" style="mix-blend-mode:passthrough"/></g></g></svg>